<svg xmlns="http://www.w3.org/2000/svg" viewBox="0 0 512 512"><path style="fill:#119822;" d="M256 121c-74.439 0-135 60.561-135 135 0 74.488 60.635 135 135 135 74.428 0 135-60.577 135-135 0-74.439-60.561-135-135-135zm0 240c-24.499 0-47.063-8.435-64.946-22.552C204.327 315.41 228.825 301 256 301c27.176 0 51.673 14.41 64.945 37.448C303.063 352.565 280.499 361 256 361zm-30-120c0-16.542 13.458-30 30-30s30 13.458 30 30-13.458 30-30 30-30-13.458-30-30zm116.173 74.92a104.356 104.356 0 0 0-41.438-34.992C310.22 270.313 316 256.321 316 241c0-33.084-26.916-60-60-60s-60 26.916-60 60c0 15.321 5.78 29.313 15.265 39.928a104.363 104.363 0 0 0-41.438 34.992C157.968 298.916 151 278.258 151 256c0-57.897 47.103-105 105-105s105 47.103 105 105c0 22.258-6.967 42.916-18.827 59.92z"/><path style="fill:#119822;" d="M499.418 211.196l-39.812-6.502a207.601 207.601 0 0 0-23.408-56.37l22.927-32.098a15 15 0 0 0-1.6-19.325l-42.426-42.425a15 15 0 0 0-19.325-1.599l-32.098 22.927a207.604 207.604 0 0 0-56.37-23.409l-6.503-39.812A14.999 14.999 0 0 0 286 0h-60a15 15 0 0 0-14.804 12.582l-6.502 39.812a207.528 207.528 0 0 0-56.37 23.409l-32.099-22.927A15 15 0 0 0 96.9 54.475L54.475 96.9a15 15 0 0 0-1.6 19.325l22.927 32.098a207.604 207.604 0 0 0-23.409 56.37l-39.812 6.502A15.002 15.002 0 0 0 0 226v60a15 15 0 0 0 12.582 14.804l39.812 6.502a207.59 207.59 0 0 0 23.409 56.37l-22.927 32.098a15 15 0 0 0 1.6 19.325l42.425 42.426a15 15 0 0 0 19.325 1.599l32.099-22.927a207.59 207.59 0 0 0 56.37 23.409l6.502 39.812A14.999 14.999 0 0 0 226 512h60a15 15 0 0 0 14.804-12.582l6.503-39.812a207.572 207.572 0 0 0 56.37-23.409l32.098 22.927a14.998 14.998 0 0 0 19.325-1.599l42.426-42.426a15 15 0 0 0 1.6-19.325l-22.927-32.098a207.601 207.601 0 0 0 23.408-56.37l39.812-6.502A15 15 0 0 0 512 286v-60a15 15 0 0 0-12.582-14.804zM482 273.251l-37.217 6.078a15 15 0 0 0-12.293 11.874c-4.618 23.185-13.646 44.93-26.833 64.63a15 15 0 0 0 .259 17.063l21.411 29.976-24.455 24.455-29.976-21.411a15.002 15.002 0 0 0-17.063-.259c-19.701 13.188-41.445 22.215-64.63 26.833a15 15 0 0 0-11.874 12.293L273.251 482h-34.502l-6.079-37.217a15 15 0 0 0-11.874-12.293c-23.186-4.618-44.93-13.646-64.629-26.833a14.998 14.998 0 0 0-17.063.259l-29.976 21.411-24.455-24.455 21.411-29.976a15.002 15.002 0 0 0 .259-17.063c-13.188-19.7-22.215-41.444-26.833-64.629a15 15 0 0 0-12.293-11.874L30 273.251v-34.502l37.217-6.078a15 15 0 0 0 12.293-11.874c4.618-23.185 13.646-44.929 26.833-64.629a14.998 14.998 0 0 0-.259-17.063l-21.411-29.976 24.455-24.455 29.976 21.411a15 15 0 0 0 17.063.259c19.699-13.187 41.443-22.215 64.629-26.833a15.002 15.002 0 0 0 11.874-12.293L238.749 30h34.502l6.079 37.217a15 15 0 0 0 11.874 12.293c23.185 4.618 44.929 13.646 64.63 26.833a15 15 0 0 0 17.063-.259l29.976-21.411 24.455 24.455-21.411 29.976a15.002 15.002 0 0 0-.259 17.063c13.187 19.7 22.215 41.444 26.833 64.629a15.002 15.002 0 0 0 12.293 11.874L482 238.749v34.502z"/></svg>